<svg>
	<defs>
		<symbol id="infopanelopen-icon">
			<svg xmlns="http://www.w3.org/2000/svg" viewBox="0 0 26.5 26.4"><path d="M13.3 26.2c-7.2 0-13-5.8-13-13 0-7.2 5.8-13 13-13s13 5.8 13 13C26.2 20.4 20.4 26.2 13.3 26.2zM13.3 2.2c-6.1 0-11 4.9-11 11s4.9 11 11 11c6.1 0 11-4.9 11-11S19.3 2.2 13.3 2.2z"/><path d="M14.4 6.3c-3.4 0-6.1 2.7-6.1 6.1 0 1.4 0.5 2.6 1.2 3.7l-2.5 2.5c-0.4 0.4-0.4 1 0 1.4 0.2 0.2 0.5 0.3 0.7 0.3s0.5-0.1 0.7-0.3l2.5-2.5c1 0.7 2.1 1 3.4 1 3.4 0 6.1-2.7 6.1-6.1C20.5 9 17.8 6.3 14.4 6.3zM14.4 16.4c-2.2 0-4.1-1.8-4.1-4.1s1.8-4.1 4.1-4.1 4.1 1.8 4.1 4.1S16.7 16.4 14.4 16.4z"/></svg>
		</symbol>
						
		<symbol id="infopanelturn-icon">
			<svg xmlns="http://www.w3.org/2000/svg" viewBox="0 0 26.5 26.4"><path d="M13.3 0.2c-7.2 0-13 5.8-13 13 0 7.2 5.8 13 13 13s13-5.8 13-13C26.2 6 20.4 0.2 13.3 0.2zM13.3 24.2c-6.1 0-11-4.9-11-11 0-6.1 4.9-11 11-11 6.1 0 11 4.9 11 11C24.2 19.3 19.3 24.2 13.3 24.2z"/><path d="M16.2 9.5c-0.5-0.1-1.1 0.3-1.1 0.8s0.3 1.1 0.8 1.1c2.7 0.4 3.9 1.4 3.9 1.7 0 0.6-2.3 1.9-6.5 1.9s-6.5-1.4-6.5-1.9c0-0.3 0.7-0.9 2.2-1.4 0 0.2 0.1 0.5 0.2 0.7 0.2 0.2 0.5 0.3 0.8 0.3 0.2 0 0.5-0.1 0.7-0.2l2.9-2.5 -3.2-1.8C9.8 8.1 9.1 8.2 8.9 8.7c-0.2 0.3-0.2 0.7 0 1 -2.6 0.7-4.2 1.9-4.2 3.4 0 2.6 4.3 3.9 8.5 3.9s8.5-1.4 8.5-3.9C21.8 11.4 19.7 10 16.2 9.5z"/></svg>
		</symbol>
						
		<symbol id="infopanelclose-icon">
			<svg xmlns="http://www.w3.org/2000/svg" viewBox="0 0 26.5 26.4"><path d="M13.3 26.2c-7.2 0-13-5.8-13-13 0-7.2 5.8-13 13-13s13 5.8 13 13C26.2 20.4 20.4 26.2 13.3 26.2zM13.3 2.2c-6.1 0-11 4.9-11 11 0 6.1 4.9 11 11 11 6.1 0 11-4.9 11-11C24.2 7.1 19.3 2.2 13.3 2.2z"/><path d="M14.6 13.2L18 9.9c0.4-0.4 0.4-1 0-1.4 -0.4-0.4-1-0.4-1.4 0l-3.3 3.3L9.9 8.5c-0.4-0.4-1-0.4-1.4 0s-0.4 1 0 1.4l3.3 3.3 -3.3 3.3c-0.4 0.4-0.4 1 0 1.4 0.2 0.2 0.5 0.3 0.7 0.3s0.5-0.1 0.7-0.3l3.3-3.3 3.3 3.3c0.2 0.2 0.5 0.3 0.7 0.3s0.5-0.1 0.7-0.3c0.4-0.4 0.4-1 0-1.4L14.6 13.2z"/></svg>
		</symbol>	  
	
	</defs>
</svg>